<svg version="1.1" id="Layer_1" xmlns="http://www.w3.org/2000/svg" xmlns:xlink="http://www.w3.org/1999/xlink" x="0px" y="0px"
	 width="100%" viewBox="0 0 888 938" enable-background="new 0 0 888 938" xml:space="preserve">
<path fill="#EEEFF2" opacity="1.000000" stroke="none" 
	d="
M889.000000,353.000000 
	C889.000000,548.666687 889.000000,743.833313 889.000000,939.000000 
	C593.000000,939.000000 297.000000,939.000000 1.000000,939.000000 
	C1.000000,626.333313 1.000000,313.666656 1.000000,1.000000 
	C297.000000,1.000000 593.000000,1.000000 889.000000,1.000000 
	C889.000000,118.166664 889.000000,235.333328 889.000000,353.000000 
M485.059082,772.957703 
	C485.059082,806.881165 485.059082,840.804688 485.059082,874.615479 
	C495.679474,874.615479 505.569794,874.615479 515.721069,874.615479 
	C515.721069,872.744751 515.718689,871.264709 515.721375,869.784607 
	C515.776428,839.625916 515.836853,809.467224 515.885132,779.308533 
	C515.902466,768.445618 516.774658,767.543701 527.454529,767.528076 
	C528.121033,767.527039 528.787598,767.526794 529.454102,767.530640 
	C538.618774,767.583435 539.380615,768.317505 539.385681,777.537598 
	C539.402405,808.031250 539.392944,838.524902 539.393616,869.018555 
	C539.393677,870.936890 539.393677,872.855164 539.393677,874.815979 
	C549.786438,874.815979 559.409485,874.815979 569.551025,874.815979 
	C569.551025,872.832642 569.550964,871.037109 569.550964,869.241577 
	C569.550720,837.581543 569.557983,805.921448 569.538513,774.261414 
	C569.536682,771.264404 569.590454,768.240845 569.235291,765.275513 
	C568.122498,755.982849 564.065125,747.862732 554.553711,745.946350 
	C545.776855,744.177856 536.443176,744.505554 527.403015,744.932251 
	C520.741211,745.246643 516.334412,750.240967 512.878845,756.143555 
	C506.847229,745.864075 497.675049,743.954773 487.561035,743.889771 
	C477.866821,743.827454 468.065979,743.229309 460.948242,752.631470 
	C460.948242,749.790466 460.948242,746.949524 460.948242,744.270142 
	C450.742310,744.270142 441.167389,744.270142 431.539307,744.270142 
	C431.539307,788.010620 431.539307,831.390076 431.539307,874.934937 
	C441.581055,874.934937 451.237061,874.934937 461.693207,874.823547 
	C462.090881,873.145020 462.830322,871.467468 462.835480,869.787720 
	C462.929749,839.138916 462.946716,808.489746 462.929504,777.840698 
	C462.928619,776.241028 462.476807,774.641663 462.233582,772.335205 
	C463.820679,770.880859 465.407806,769.426575 467.630310,768.493042 
	C469.442291,768.617920 471.252502,768.804077 473.066559,768.855286 
	C477.265015,768.973816 481.746582,767.980103 485.059082,772.957703 
M653.027466,387.973053 
	C661.157532,385.258087 664.163635,381.304596 664.179077,373.006226 
	C664.212646,355.008759 664.355713,337.008484 664.084412,319.014954 
	C663.987061,312.557281 663.312134,306.021118 662.076294,299.681519 
	C651.106018,243.406860 598.365845,209.276825 551.659973,214.092438 
	C538.940369,215.403885 526.631226,217.842819 515.136169,223.436844 
	C511.400940,225.254562 509.740631,225.042358 507.359375,221.238419 
	C489.828796,193.234360 464.656189,175.739838 431.876923,171.807053 
	C386.774384,166.395737 351.649689,183.909378 327.074799,222.170563 
	C325.341675,224.868896 324.132965,225.365128 321.209229,223.968155 
	C310.149628,218.683716 298.424561,215.377335 286.226105,214.407227 
	C223.892944,209.450134 170.254028,258.761322 169.834488,321.292450 
	C169.719330,338.456055 169.797394,355.621094 169.829514,372.785400 
	C169.832916,374.603333 169.857880,376.493835 170.331131,378.225403 
	C172.100952,384.700928 178.222992,388.784241 184.734833,388.037811 
	C191.365601,387.277740 196.426514,381.829071 196.498474,374.648315 
	C196.665482,357.985535 196.629639,341.319763 196.550964,324.655792 
	C196.500916,314.058044 198.250488,303.844696 201.731781,293.814575 
	C216.829224,250.316544 268.959808,228.500732 310.377716,248.348663 
	C313.700073,249.940781 314.659485,251.676804 313.829773,255.271698 
	C312.636871,260.440277 311.407715,265.743134 311.336548,271.004150 
	C310.964691,298.491333 310.411896,325.995026 310.997498,353.470032 
	C311.428925,373.712952 327.747070,388.413269 347.504120,388.120514 
	C366.828217,387.834198 382.040466,372.507629 382.527466,352.404816 
	C382.813873,340.581482 382.833954,328.733246 382.424103,316.915253 
	C381.443909,288.652374 370.578430,264.591797 350.390045,244.876358 
	C347.028381,241.593430 347.152008,239.301163 349.383240,235.583878 
	C367.067413,206.121658 402.879333,191.211411 436.097778,199.962524 
	C459.431152,206.109512 476.293945,220.473160 487.945038,241.508087 
	C486.815155,242.732773 485.962372,243.741089 485.023743,244.661835 
	C471.946716,257.489716 462.629669,272.596497 456.839111,290.005554 
	C449.327515,312.588745 450.917297,335.846649 452.239746,358.874908 
	C453.085571,373.603180 466.816162,386.102478 481.011688,388.189362 
	C504.294861,391.612244 523.206787,375.572083 523.447754,351.802338 
	C523.684265,328.474487 523.738586,305.138855 523.386902,281.813965 
	C523.247009,272.531830 522.017517,263.241455 520.821533,254.014786 
	C520.454163,251.180603 520.705994,249.506363 523.430115,248.620499 
	C531.155151,246.108444 538.723816,242.440170 546.648804,241.329010 
	C594.999756,234.549667 637.071106,271.280884 637.399170,320.102417 
	C637.517883,337.765961 637.383667,355.431030 637.450439,373.095123 
	C637.486938,382.755829 642.640137,387.897003 653.027466,387.973053 
M103.671593,856.498657 
	C103.671593,862.576904 103.671593,868.655090 103.671593,874.712891 
	C114.354240,874.712891 124.276886,874.712891 134.827911,874.712891 
	C134.827911,852.884705 134.827911,831.345093 134.827911,809.890686 
	C144.330338,808.809265 144.300247,808.820984 147.382614,816.741821 
	C150.336533,824.332581 153.367065,831.893555 156.354721,839.471252 
	C161.026810,851.321167 165.691132,863.174194 170.201019,874.625427 
	C181.514023,874.625427 192.199081,874.625427 203.312927,874.625427 
	C193.969711,852.498108 184.829559,830.851624 175.523743,808.812866 
	C191.042068,805.007935 195.120102,794.276428 195.048431,780.706787 
	C194.963074,764.551025 195.176071,748.392456 194.961334,732.239014 
	C194.754715,716.698303 186.771896,708.228271 171.353333,706.675171 
	C169.204483,706.458740 167.029160,706.442810 164.865982,706.440613 
	C146.211380,706.421692 127.556770,706.419861 108.902184,706.438599 
	C107.298843,706.440186 105.695686,706.627319 103.672035,706.754700 
	C103.672035,756.638794 103.672035,806.068909 103.671593,856.498657 
M323.043457,851.299072 
	C324.574402,867.094910 332.550476,874.667908 348.382202,874.937561 
	C360.210663,875.139099 372.046448,875.099121 383.876678,874.964783 
	C401.098663,874.769226 409.978241,865.892029 410.070465,848.541199 
	C410.208588,822.548828 410.205902,796.554688 410.071411,770.562256 
	C409.980255,752.945007 401.199341,744.216064 383.513397,743.966553 
	C372.183807,743.806763 360.848145,743.805786 349.518646,743.970703 
	C331.676788,744.230408 323.087921,752.734436 322.995850,770.499451 
	C322.857941,797.114990 322.985138,823.731934 323.043457,851.299072 
M677.508789,875.007446 
	C686.674438,874.981262 695.857727,875.301575 705.000854,874.834839 
	C714.824524,874.333313 723.232605,870.897400 727.375732,860.929443 
	C730.829895,852.618958 729.627625,844.032776 729.476318,835.497437 
	C719.497131,835.497437 710.090881,835.497437 700.187195,835.497437 
	C700.187195,839.320862 700.256531,842.790527 700.168579,846.256104 
	C700.072327,850.049133 698.060608,852.121216 694.232727,852.185120 
	C689.734375,852.260315 685.233459,852.280518 680.734985,852.221436 
	C674.578979,852.140564 673.187073,850.767761 673.089417,844.424133 
	C672.984253,837.593018 673.302490,830.747070 672.965881,823.930786 
	C672.753479,819.629761 673.935486,818.135681 678.472595,818.218445 
	C693.632935,818.494873 708.801331,818.323120 723.966675,818.323059 
	C725.747192,818.322998 727.527771,818.323120 729.279968,818.323120 
	C729.597961,817.071716 729.901917,816.438660 729.898438,815.807373 
	C729.805420,798.661316 730.213135,781.489075 729.364563,764.379272 
	C728.845764,753.916870 721.738586,746.075745 711.380737,745.275269 
	C695.839722,744.074036 680.160645,744.608032 664.539734,744.554871 
	C662.607544,744.548279 660.615051,745.305054 658.747864,745.978210 
	C648.663696,749.613525 643.835327,757.193298 643.701477,770.481506 
	C643.510193,789.477966 643.594666,808.477661 643.648865,827.475769 
	C643.674011,836.303528 643.490112,845.162170 644.155090,853.949768 
	C644.872742,863.431641 649.989319,870.419373 659.270325,873.010498 
	C664.774963,874.547363 670.750244,874.398438 677.508789,875.007446 
M226.515472,871.087219 
	C231.284744,872.376343 236.016251,874.578064 240.830627,874.777344 
	C253.463440,875.300171 266.137482,875.175720 278.785553,874.888977 
	C293.468811,874.556091 302.633728,866.346741 302.922455,851.752625 
	C303.478882,823.629578 303.412354,795.482483 302.947815,767.356262 
	C302.730286,754.185303 296.103271,745.969910 283.350922,744.922241 
	C267.513397,743.621033 251.402008,743.689026 235.562393,745.008362 
	C223.218536,746.036560 217.463943,753.775940 216.301773,766.146362 
	C216.053223,768.791992 216.050430,771.467041 216.048187,774.128601 
	C216.029388,796.394531 216.009109,818.660461 216.059723,840.926270 
	C216.070297,845.581055 216.058044,850.273193 216.614944,854.880554 
	C217.402069,861.392517 220.218094,866.954468 226.515472,871.087219 
M231.026154,173.474243 
	C248.558411,190.984192 269.290985,196.899734 293.243774,190.188080 
	C323.956726,181.582184 343.010193,148.155731 335.134247,117.120445 
	C326.913147,84.725151 294.635834,64.379326 262.922882,71.602341 
	C216.364777,82.206528 198.960907,136.677155 231.026154,173.474243 
M392.194214,144.284775 
	C431.488678,160.228012 471.749084,137.071945 477.782928,95.057777 
	C483.276154,56.808002 446.709351,20.995342 408.693848,27.393505 
	C380.319550,32.169014 360.503235,52.348911 356.277283,80.771858 
	C352.482819,106.292442 366.637695,131.661560 392.194214,144.284775 
M616.848328,113.605232 
	C606.401917,81.801720 574.867188,64.128990 543.096497,72.273209 
	C511.664520,80.330582 492.321716,111.185631 498.377686,143.607269 
	C504.325958,175.452271 536.559937,197.527618 568.107300,192.150772 
	C603.136841,186.180435 627.546082,151.136215 616.848328,113.605232 
M619.163147,743.914978 
	C610.080261,743.914978 600.997375,743.914978 591.815674,743.914978 
	C591.815674,787.966553 591.815674,831.336609 591.815674,874.680664 
	C601.846680,874.680664 611.578735,874.680664 621.321960,874.680664 
	C621.478027,873.893433 621.654846,873.417480 621.655029,872.941406 
	C621.674011,831.161987 621.692749,789.382507 621.618713,747.603210 
	C621.616577,746.384338 620.623962,745.167236 619.163147,743.914978 
M590.709290,717.074097 
	C590.786316,718.690613 590.863342,720.307068 590.957764,722.288513 
	C600.785034,722.288513 610.232544,722.346069 619.677002,722.202332 
	C620.652954,722.187439 622.434631,720.994141 622.451111,720.313965 
	C622.646301,712.251221 622.576782,704.182007 622.576782,696.016357 
	C611.596497,696.016357 601.337646,696.016357 590.709473,696.016357 
	C590.709473,702.884705 590.709473,709.520264 590.709290,717.074097 
z"/>
<path fill="#3A1C32" opacity="1.000000" stroke="none" 
	d="
M652.612671,388.016785 
	C642.640137,387.897003 637.486938,382.755829 637.450439,373.095123 
	C637.383667,355.431030 637.517883,337.765961 637.399170,320.102417 
	C637.071106,271.280884 594.999756,234.549667 546.648804,241.329010 
	C538.723816,242.440170 531.155151,246.108444 523.430115,248.620499 
	C520.705994,249.506363 520.454163,251.180603 520.821533,254.014786 
	C522.017517,263.241455 523.247009,272.531830 523.386902,281.813965 
	C523.738586,305.138855 523.684265,328.474487 523.447754,351.802338 
	C523.206787,375.572083 504.294861,391.612244 481.011688,388.189362 
	C466.816162,386.102478 453.085571,373.603180 452.239746,358.874908 
	C450.917297,335.846649 449.327515,312.588745 456.839111,290.005554 
	C462.629669,272.596497 471.946716,257.489716 485.023743,244.661835 
	C485.962372,243.741089 486.815155,242.732773 487.945038,241.508087 
	C476.293945,220.473160 459.431152,206.109512 436.097778,199.962524 
	C402.879333,191.211411 367.067413,206.121658 349.383240,235.583878 
	C347.152008,239.301163 347.028381,241.593430 350.390045,244.876358 
	C370.578430,264.591797 381.443909,288.652374 382.424103,316.915253 
	C382.833954,328.733246 382.813873,340.581482 382.527466,352.404816 
	C382.040466,372.507629 366.828217,387.834198 347.504120,388.120514 
	C327.747070,388.413269 311.428925,373.712952 310.997498,353.470032 
	C310.411896,325.995026 310.964691,298.491333 311.336548,271.004150 
	C311.407715,265.743134 312.636871,260.440277 313.829773,255.271698 
	C314.659485,251.676804 313.700073,249.940781 310.377716,248.348663 
	C268.959808,228.500732 216.829224,250.316544 201.731781,293.814575 
	C198.250488,303.844696 196.500916,314.058044 196.550964,324.655792 
	C196.629639,341.319763 196.665482,357.985535 196.498474,374.648315 
	C196.426514,381.829071 191.365601,387.277740 184.734833,388.037811 
	C178.222992,388.784241 172.100952,384.700928 170.331131,378.225403 
	C169.857880,376.493835 169.832916,374.603333 169.829514,372.785400 
	C169.797394,355.621094 169.719330,338.456055 169.834488,321.292450 
	C170.254028,258.761322 223.892944,209.450134 286.226105,214.407227 
	C298.424561,215.377335 310.149628,218.683716 321.209229,223.968155 
	C324.132965,225.365128 325.341675,224.868896 327.074799,222.170563 
	C351.649689,183.909378 386.774384,166.395737 431.876923,171.807053 
	C464.656189,175.739838 489.828796,193.234360 507.359375,221.238419 
	C509.740631,225.042358 511.400940,225.254562 515.136169,223.436844 
	C526.631226,217.842819 538.940369,215.403885 551.659973,214.092438 
	C598.365845,209.276825 651.106018,243.406860 662.076294,299.681519 
	C663.312134,306.021118 663.987061,312.557281 664.084412,319.014954 
	C664.355713,337.008484 664.212646,355.008759 664.179077,373.006226 
	C664.163635,381.304596 661.157532,385.258087 652.612671,388.016785 
M344.885223,361.689087 
	C352.132721,361.412781 355.312408,358.403656 355.403046,351.360046 
	C355.516541,342.536377 355.765656,333.694122 355.338989,324.889771 
	C354.938995,316.636414 354.467499,308.260925 352.703156,300.230133 
	C350.345642,289.499451 345.142212,279.903442 337.694214,271.402679 
	C337.267700,272.086823 336.969788,272.341614 336.969513,272.596771 
	C336.939453,299.237274 336.879181,325.877960 336.972717,352.518127 
	C336.988983,357.152985 339.491760,360.320862 344.885223,361.689087 
M478.677734,332.500244 
	C478.683655,338.823334 478.552887,345.150299 478.733582,351.468384 
	C478.918701,357.940826 483.622040,362.116394 489.349792,361.213348 
	C494.045288,360.473053 497.144928,356.661652 497.144043,351.162537 
	C497.139893,325.537628 497.057312,299.912689 496.980377,274.287842 
	C496.978760,273.740906 496.708862,273.194763 496.363953,271.892517 
	C494.500854,274.560577 493.014221,276.536652 491.686920,278.614471 
	C481.369385,294.766602 477.978943,312.633026 478.677734,332.500244 
z"/>
<path fill="#3A1C32" opacity="1.000000" stroke="none" 
	d="
M466.994873,767.972290 
	C465.407806,769.426575 463.820679,770.880859 461.960938,772.996826 
	C461.484222,779.132935 461.124908,784.606628 461.102234,790.081848 
	C460.985077,818.366028 460.954071,846.650513 460.893066,874.934937 
	C451.237061,874.934937 441.581055,874.934937 431.539307,874.934937 
	C431.539307,831.390076 431.539307,788.010620 431.539307,744.270142 
	C441.167389,744.270142 450.742310,744.270142 460.948242,744.270142 
	C460.948242,746.949524 460.948242,749.790466 460.948242,752.631470 
	C468.065979,743.229309 477.866821,743.827454 487.561035,743.889771 
	C497.675049,743.954773 506.847229,745.864075 512.878845,756.143555 
	C516.334412,750.240967 520.741211,745.246643 527.403015,744.932251 
	C536.443176,744.505554 545.776855,744.177856 554.553711,745.946350 
	C564.065125,747.862732 568.122498,755.982849 569.235291,765.275513 
	C569.590454,768.240845 569.536682,771.264404 569.538513,774.261414 
	C569.557983,805.921448 569.550720,837.581543 569.550964,869.241577 
	C569.550964,871.037109 569.551025,872.832642 569.551025,874.815979 
	C559.409485,874.815979 549.786438,874.815979 539.393677,874.815979 
	C539.393677,872.855164 539.393677,870.936890 539.393616,869.018555 
	C539.392944,838.524902 539.402405,808.031250 539.385681,777.537598 
	C539.380615,768.317505 538.618774,767.583435 529.454102,767.530640 
	C528.787598,767.526794 528.121033,767.527039 527.454529,767.528076 
	C516.774658,767.543701 515.902466,768.445618 515.885132,779.308533 
	C515.836853,809.467224 515.776428,839.625916 515.721375,869.784607 
	C515.718689,871.264709 515.721069,872.744751 515.721069,874.615479 
	C505.569794,874.615479 495.679474,874.615479 485.059082,874.615479 
	C485.059082,840.804688 485.059082,806.881165 485.027893,772.127075 
	C483.808990,770.107422 482.686188,767.983459 481.421997,767.895630 
	C476.637787,767.563293 471.807770,767.891296 466.994873,767.972290 
z"/>
<path fill="#3B1C32" opacity="1.000000" stroke="none" 
	d="
M103.671814,855.998840 
	C103.672035,806.068909 103.672035,756.638794 103.672035,706.754700 
	C105.695686,706.627319 107.298843,706.440186 108.902184,706.438599 
	C127.556770,706.419861 146.211380,706.421692 164.865982,706.440613 
	C167.029160,706.442810 169.204483,706.458740 171.353333,706.675171 
	C186.771896,708.228271 194.754715,716.698303 194.961334,732.239014 
	C195.176071,748.392456 194.963074,764.551025 195.048431,780.706787 
	C195.120102,794.276428 191.042068,805.007935 175.523743,808.812866 
	C184.829559,830.851624 193.969711,852.498108 203.312927,874.625427 
	C192.199081,874.625427 181.514023,874.625427 170.201019,874.625427 
	C165.691132,863.174194 161.026810,851.321167 156.354721,839.471252 
	C153.367065,831.893555 150.336533,824.332581 147.382614,816.741821 
	C144.300247,808.820984 144.330338,808.809265 134.827911,809.890686 
	C134.827911,831.345093 134.827911,852.884705 134.827911,874.712891 
	C124.276886,874.712891 114.354240,874.712891 103.671593,874.712891 
	C103.671593,868.655090 103.671593,862.576904 103.671814,855.998840 
M156.996826,786.742249 
	C162.091721,786.934998 164.222549,784.259949 164.214661,779.395752 
	C164.191742,765.249207 164.176651,751.102539 164.221100,736.956116 
	C164.236160,732.161194 161.930496,729.961670 157.190170,730.004700 
	C151.365738,730.057556 145.530396,730.203308 139.718811,729.919189 
	C135.854660,729.730347 134.489594,730.851318 134.547974,734.932861 
	C134.773987,750.740540 134.632446,766.553345 134.653870,782.364258 
	C134.655609,783.649353 134.854767,784.934204 135.006332,786.747192 
	C142.194595,786.747192 149.144058,786.747192 156.996826,786.742249 
z"/>
<path fill="#3B1D32" opacity="1.000000" stroke="none" 
	d="
M323.021545,850.823669 
	C322.985138,823.731934 322.857941,797.114990 322.995850,770.499451 
	C323.087921,752.734436 331.676788,744.230408 349.518646,743.970703 
	C360.848145,743.805786 372.183807,743.806763 383.513397,743.966553 
	C401.199341,744.216064 409.980255,752.945007 410.071411,770.562256 
	C410.205902,796.554688 410.208588,822.548828 410.070465,848.541199 
	C409.978241,865.892029 401.098663,874.769226 383.876678,874.964783 
	C372.046448,875.099121 360.210663,875.139099 348.382202,874.937561 
	C332.550476,874.667908 324.574402,867.094910 323.021545,850.823669 
M352.798767,771.940857 
	C352.770142,796.226685 352.708649,820.512512 352.737030,844.798279 
	C352.743774,850.577454 354.386139,852.089966 360.235443,852.224304 
	C363.062317,852.289246 365.891846,852.237671 368.720154,852.242126 
	C379.711334,852.259583 380.413422,851.604065 380.384247,840.825195 
	C380.363159,833.038757 380.187164,825.252686 380.181946,817.466309 
	C380.171906,802.499939 380.279327,787.533386 380.234650,772.567261 
	C380.223297,768.771484 378.045074,766.771301 374.233185,766.739685 
	C369.076447,766.696777 363.870392,766.319580 358.785370,766.924805 
	C356.686707,767.174622 354.847168,769.601868 352.798767,771.940857 
z"/>
<path fill="#3A1C31" opacity="1.000000" stroke="none" 
	d="
M677.011353,875.007446 
	C670.750244,874.398438 664.774963,874.547363 659.270325,873.010498 
	C649.989319,870.419373 644.872742,863.431641 644.155090,853.949768 
	C643.490112,845.162170 643.674011,836.303528 643.648865,827.475769 
	C643.594666,808.477661 643.510193,789.477966 643.701477,770.481506 
	C643.835327,757.193298 648.663696,749.613525 658.747864,745.978210 
	C660.615051,745.305054 662.607544,744.548279 664.539734,744.554871 
	C680.160645,744.608032 695.839722,744.074036 711.380737,745.275269 
	C721.738586,746.075745 728.845764,753.916870 729.364563,764.379272 
	C730.213135,781.489075 729.805420,798.661316 729.898438,815.807373 
	C729.901917,816.438660 729.597961,817.071716 729.279968,818.323120 
	C727.527771,818.323120 725.747192,818.322998 723.966675,818.323059 
	C708.801331,818.323120 693.632935,818.494873 678.472595,818.218445 
	C673.935486,818.135681 672.753479,819.629761 672.965881,823.930786 
	C673.302490,830.747070 672.984253,837.593018 673.089417,844.424133 
	C673.187073,850.767761 674.578979,852.140564 680.734985,852.221436 
	C685.233459,852.280518 689.734375,852.260315 694.232727,852.185120 
	C698.060608,852.121216 700.072327,850.049133 700.168579,846.256104 
	C700.256531,842.790527 700.187195,839.320862 700.187195,835.497437 
	C710.090881,835.497437 719.497131,835.497437 729.476318,835.497437 
	C729.627625,844.032776 730.829895,852.618958 727.375732,860.929443 
	C723.232605,870.897400 714.824524,874.333313 705.000854,874.834839 
	C695.857727,875.301575 686.674438,874.981262 677.011353,875.007446 
M673.009644,784.499878 
	C673.009644,789.095703 673.009644,793.691467 673.009644,798.451477 
	C682.576355,798.451477 691.439453,798.451477 700.583313,798.451477 
	C700.583313,789.169922 700.658691,780.227783 700.543396,771.288147 
	C700.501709,768.054749 698.371887,766.557251 695.283508,766.520325 
	C689.805847,766.454773 684.326477,766.455261 678.848572,766.502747 
	C674.923462,766.536682 673.160767,768.792419 673.087891,772.529297 
	C673.016602,776.187256 673.032166,779.846924 673.009644,784.499878 
z"/>
<path fill="#3A1C31" opacity="1.000000" stroke="none" 
	d="
M226.189346,870.918335 
	C220.218094,866.954468 217.402069,861.392517 216.614944,854.880554 
	C216.058044,850.273193 216.070297,845.581055 216.059723,840.926270 
	C216.009109,818.660461 216.029388,796.394531 216.048187,774.128601 
	C216.050430,771.467041 216.053223,768.791992 216.301773,766.146362 
	C217.463943,753.775940 223.218536,746.036560 235.562393,745.008362 
	C251.402008,743.689026 267.513397,743.621033 283.350922,744.922241 
	C296.103271,745.969910 302.730286,754.185303 302.947815,767.356262 
	C303.412354,795.482483 303.478882,823.629578 302.922455,851.752625 
	C302.633728,866.346741 293.468811,874.556091 278.785553,874.888977 
	C266.137482,875.175720 253.463440,875.300171 240.830627,874.777344 
	C236.016251,874.578064 231.284744,872.376343 226.189346,870.918335 
M273.596802,775.890015 
	C273.243042,767.639343 272.300476,766.702820 264.221527,766.675781 
	C260.224976,766.662415 256.228149,766.673035 252.231766,766.708679 
	C248.002930,766.746338 245.799469,768.709167 245.807617,773.139160 
	C245.852020,797.281799 245.846893,821.424683 245.805710,845.567322 
	C245.797775,850.215637 248.151276,852.227051 252.589447,852.233765 
	C256.752625,852.240051 260.916168,852.282959 265.078949,852.244812 
	C271.927582,852.182068 273.587311,850.637451 273.551392,843.611450 
	C273.513153,836.143799 272.905914,828.676941 272.943451,821.211670 
	C273.017822,806.410522 273.364746,791.610779 273.596802,775.890015 
z"/>
<path fill="#3B1C32" opacity="1.000000" stroke="none" 
	d="
M230.782379,173.216461 
	C198.960907,136.677155 216.364777,82.206528 262.922882,71.602341 
	C294.635834,64.379326 326.913147,84.725151 335.134247,117.120445 
	C343.010193,148.155731 323.956726,181.582184 293.243774,190.188080 
	C269.290985,196.899734 248.558411,190.984192 230.782379,173.216461 
M308.258484,142.475281 
	C310.426147,135.815308 310.602875,129.148102 308.788849,122.338165 
	C304.194580,105.090981 287.111603,94.670471 268.493011,97.901253 
	C252.280411,100.714523 240.189056,116.900444 241.863663,133.548264 
	C243.609451,150.903687 255.524948,163.717697 271.941528,165.894196 
	C287.069641,167.899887 301.699829,158.684906 308.258484,142.475281 
z"/>
<path fill="#3B1C32" opacity="1.000000" stroke="none" 
	d="
M391.857178,144.110382 
	C366.637695,131.661560 352.482819,106.292442 356.277283,80.771858 
	C360.503235,52.348911 380.319550,32.169014 408.693848,27.393505 
	C446.709351,20.995342 483.276154,56.808002 477.782928,95.057777 
	C471.749084,137.071945 431.488678,160.228012 391.857178,144.110382 
M403.719330,120.011848 
	C404.499390,120.296944 405.267578,120.621178 406.061249,120.861305 
	C419.504333,124.928581 431.562225,122.360130 441.393555,112.337166 
	C451.200043,102.339516 453.988281,90.196121 449.332275,76.898315 
	C444.676788,63.602005 434.870483,56.007252 421.035248,54.063923 
	C404.798859,51.783329 388.948700,62.323406 384.071106,78.160683 
	C378.971771,94.717789 386.696747,111.629677 403.719330,120.011848 
z"/>
<path fill="#3B1C32" opacity="1.000000" stroke="none" 
	d="
M616.978088,113.985916 
	C627.546082,151.136215 603.136841,186.180435 568.107300,192.150772 
	C536.559937,197.527618 504.325958,175.452271 498.377686,143.607269 
	C492.321716,111.185631 511.664520,80.330582 543.096497,72.273209 
	C574.867188,64.128990 606.401917,81.801720 616.978088,113.985916 
M578.054504,103.344604 
	C576.913391,102.665283 575.796753,101.940262 574.627380,101.313652 
	C561.803223,94.441757 546.448975,96.220169 535.565063,105.821541 
	C525.038208,115.107895 521.158325,130.170578 525.960754,143.107178 
	C531.148621,157.081696 543.861694,166.053329 558.463562,166.044327 
	C572.966125,166.035385 585.992554,156.726593 590.830322,142.914780 
	C595.841125,128.608643 591.285339,113.989967 578.054504,103.344604 
z"/>
<path fill="#3A1C32" opacity="1.000000" stroke="none" 
	d="
M619.628174,743.932129 
	C620.623962,745.167236 621.616577,746.384338 621.618713,747.603210 
	C621.692749,789.382507 621.674011,831.161987 621.655029,872.941406 
	C621.654846,873.417480 621.478027,873.893433 621.321960,874.680664 
	C611.578735,874.680664 601.846680,874.680664 591.815674,874.680664 
	C591.815674,831.336609 591.815674,787.966553 591.815674,743.914978 
	C600.997375,743.914978 610.080261,743.914978 619.628174,743.932129 
z"/>
<path fill="#3B1D32" opacity="1.000000" stroke="none" 
	d="
M590.709351,716.614990 
	C590.709473,709.520264 590.709473,702.884705 590.709473,696.016357 
	C601.337646,696.016357 611.596497,696.016357 622.576782,696.016357 
	C622.576782,704.182007 622.646301,712.251221 622.451111,720.313965 
	C622.434631,720.994141 620.652954,722.187439 619.677002,722.202332 
	C610.232544,722.346069 600.785034,722.288513 590.957764,722.288513 
	C590.863342,720.307068 590.786316,718.690613 590.709351,716.614990 
z"/>
<path fill="#C2BCC3" opacity="1.000000" stroke="none" 
	d="
M461.293152,874.879272 
	C460.954071,846.650513 460.985077,818.366028 461.102234,790.081848 
	C461.124908,784.606628 461.484222,779.132935 461.961609,773.350342 
	C462.476807,774.641663 462.928619,776.241028 462.929504,777.840698 
	C462.946716,808.489746 462.929749,839.138916 462.835480,869.787720 
	C462.830322,871.467468 462.090881,873.145020 461.293152,874.879272 
z"/>
<path fill="#C2BCC3" opacity="1.000000" stroke="none" 
	d="
M467.312592,768.232666 
	C471.807770,767.891296 476.637787,767.563293 481.421997,767.895630 
	C482.686188,767.983459 483.808990,770.107422 484.936523,771.668701 
	C481.746582,767.980103 477.265015,768.973816 473.066559,768.855286 
	C471.252502,768.804077 469.442291,768.617920 467.312592,768.232666 
z"/>
<path fill="#EAEBED" opacity="1.000000" stroke="none" 
	d="
M344.509979,361.612671 
	C339.491760,360.320862 336.988983,357.152985 336.972717,352.518127 
	C336.879181,325.877960 336.939453,299.237274 336.969513,272.596771 
	C336.969788,272.341614 337.267700,272.086823 337.694214,271.402679 
	C345.142212,279.903442 350.345642,289.499451 352.703156,300.230133 
	C354.467499,308.260925 354.938995,316.636414 355.338989,324.889771 
	C355.765656,333.694122 355.516541,342.536377 355.403046,351.360046 
	C355.312408,358.403656 352.132721,361.412781 344.509979,361.612671 
z"/>
<path fill="#E9EAED" opacity="1.000000" stroke="none" 
	d="
M478.677673,332.000397 
	C477.978943,312.633026 481.369385,294.766602 491.686920,278.614471 
	C493.014221,276.536652 494.500854,274.560577 496.363953,271.892517 
	C496.708862,273.194763 496.978760,273.740906 496.980377,274.287842 
	C497.057312,299.912689 497.139893,325.537628 497.144043,351.162537 
	C497.144928,356.661652 494.045288,360.473053 489.349792,361.213348 
	C483.622040,362.116394 478.918701,357.940826 478.733582,351.468384 
	C478.552887,345.150299 478.683655,338.823334 478.677673,332.000397 
z"/>
<path fill="#EAECEE" opacity="1.000000" stroke="none" 
	d="
M156.545166,786.744751 
	C149.144058,786.747192 142.194595,786.747192 135.006332,786.747192 
	C134.854767,784.934204 134.655609,783.649353 134.653870,782.364258 
	C134.632446,766.553345 134.773987,750.740540 134.547974,734.932861 
	C134.489594,730.851318 135.854660,729.730347 139.718811,729.919189 
	C145.530396,730.203308 151.365738,730.057556 157.190170,730.004700 
	C161.930496,729.961670 164.236160,732.161194 164.221100,736.956116 
	C164.176651,751.102539 164.191742,765.249207 164.214661,779.395752 
	C164.222549,784.259949 162.091721,786.934998 156.545166,786.744751 
z"/>
<path fill="#ECEEF0" opacity="1.000000" stroke="none" 
	d="
M352.844299,771.489807 
	C354.847168,769.601868 356.686707,767.174622 358.785370,766.924805 
	C363.870392,766.319580 369.076447,766.696777 374.233185,766.739685 
	C378.045074,766.771301 380.223297,768.771484 380.234650,772.567261 
	C380.279327,787.533386 380.171906,802.499939 380.181946,817.466309 
	C380.187164,825.252686 380.363159,833.038757 380.384247,840.825195 
	C380.413422,851.604065 379.711334,852.259583 368.720154,852.242126 
	C365.891846,852.237671 363.062317,852.289246 360.235443,852.224304 
	C354.386139,852.089966 352.743774,850.577454 352.737030,844.798279 
	C352.708649,820.512512 352.770142,796.226685 352.844299,771.489807 
z"/>
<path fill="#E7E7EA" opacity="1.000000" stroke="none" 
	d="
M673.009644,784.002808 
	C673.032166,779.846924 673.016602,776.187256 673.087891,772.529297 
	C673.160767,768.792419 674.923462,766.536682 678.848572,766.502747 
	C684.326477,766.455261 689.805847,766.454773 695.283508,766.520325 
	C698.371887,766.557251 700.501709,768.054749 700.543396,771.288147 
	C700.658691,780.227783 700.583313,789.169922 700.583313,798.451477 
	C691.439453,798.451477 682.576355,798.451477 673.009644,798.451477 
	C673.009644,793.691467 673.009644,789.095703 673.009644,784.002808 
z"/>
<path fill="#EAEBED" opacity="1.000000" stroke="none" 
	d="
M273.597900,776.350220 
	C273.364746,791.610779 273.017822,806.410522 272.943451,821.211670 
	C272.905914,828.676941 273.513153,836.143799 273.551392,843.611450 
	C273.587311,850.637451 271.927582,852.182068 265.078949,852.244812 
	C260.916168,852.282959 256.752625,852.240051 252.589447,852.233765 
	C248.151276,852.227051 245.797775,850.215637 245.805710,845.567322 
	C245.846893,821.424683 245.852020,797.281799 245.807617,773.139160 
	C245.799469,768.709167 248.002930,766.746338 252.231766,766.708679 
	C256.228149,766.673035 260.224976,766.662415 264.221527,766.675781 
	C272.300476,766.702820 273.243042,767.639343 273.597900,776.350220 
z"/>
<path fill="#EBEDEF" opacity="1.000000" stroke="none" 
	d="
M308.107971,142.842194 
	C301.699829,158.684906 287.069641,167.899887 271.941528,165.894196 
	C255.524948,163.717697 243.609451,150.903687 241.863663,133.548264 
	C240.189056,116.900444 252.280411,100.714523 268.493011,97.901253 
	C287.111603,94.670471 304.194580,105.090981 308.788849,122.338165 
	C310.602875,129.148102 310.426147,135.815308 308.107971,142.842194 
z"/>
<path fill="#EBEDEF" opacity="1.000000" stroke="none" 
	d="
M403.375000,119.839828 
	C386.696747,111.629677 378.971771,94.717789 384.071106,78.160683 
	C388.948700,62.323406 404.798859,51.783329 421.035248,54.063923 
	C434.870483,56.007252 444.676788,63.602005 449.332275,76.898315 
	C453.988281,90.196121 451.200043,102.339516 441.393555,112.337166 
	C431.562225,122.360130 419.504333,124.928581 406.061249,120.861305 
	C405.267578,120.621178 404.499390,120.296944 403.375000,119.839828 
z"/>
<path fill="#EBEDEF" opacity="1.000000" stroke="none" 
	d="
M578.344116,103.561523 
	C591.285339,113.989967 595.841125,128.608643 590.830322,142.914780 
	C585.992554,156.726593 572.966125,166.035385 558.463562,166.044327 
	C543.861694,166.053329 531.148621,157.081696 525.960754,143.107178 
	C521.158325,130.170578 525.038208,115.107895 535.565063,105.821541 
	C546.448975,96.220169 561.803223,94.441757 574.627380,101.313652 
	C575.796753,101.940262 576.913391,102.665283 578.344116,103.561523 
z"/>
</svg>